<?xml version="1.0" encoding="UTF-8"?>
<svg version="1.1" xmlns="http://www.w3.org/2000/svg" width="407" height="610">
<path d="M0 0 C1.010625 0.763125 2.02125 1.52625 3.0625 2.3125 C3.80371094 2.86421875 4.54492188 3.4159375 5.30859375 3.984375 C7.2496562 5.43805893 9.17783716 6.90899917 11.09765625 8.390625 C26.61959531 20.23205859 43.83873283 29.4208315 60.86352539 38.8918457 C67.38979115 42.52343377 73.86698999 46.22719338 80.3125 50 C86.23301833 53.46176771 92.20024012 56.68273792 98.375 59.67578125 C101.87411336 61.44095897 105.18564597 63.45911071 108.51953125 65.515625 C111.0513032 67.03070113 113.63233235 68.3895771 116.25 69.75 C126.23479836 75.14489812 135.25784398 82.22660145 144.01171875 89.40625 C146.11551289 91.14026341 146.11551289 91.14026341 149 93 C149 93.66 149 94.32 149 95 C149.56605957 95.24153809 150.13211914 95.48307617 150.71533203 95.73193359 C153.45582397 97.2529974 155.33485293 99.07565824 157.5546875 101.2890625 C158.41707031 102.14886719 159.27945312 103.00867188 160.16796875 103.89453125 C161.06128906 104.79558594 161.95460938 105.69664063 162.875 106.625 C163.76058594 107.50285156 164.64617187 108.38070312 165.55859375 109.28515625 C179 122.7666263 179 122.7666263 179 127 C179.66 127 180.32 127 181 127 C190.14653821 139.33672151 194.52590364 152.96150619 197 168 C197.16048828 168.89235352 197.32097656 169.78470703 197.48632812 170.70410156 C199.12657533 180.35960878 199.69017626 189.98146751 200.125 199.75 C200.16669312 200.66869873 200.20838623 201.58739746 200.25134277 202.53393555 C201.96247884 241.43959239 201.16104746 280.39974456 200.24595642 319.31692505 C200.18760329 321.87047992 200.13415002 324.42409657 200.08190918 326.9777832 C199.99851521 331.00159357 199.89985918 335.02474963 199.78924751 339.04790115 C199.75035495 340.54116505 199.71636754 342.03456551 199.68751335 343.5280571 C199.64677951 345.57907647 199.58787455 347.62878311 199.52416992 349.67919922 C199.49530197 350.83298065 199.46643402 351.98676208 199.43669128 353.17550659 C199 356 199 356 197.59223938 357.89505005 C196 359 196 359 194 359 C193.690625 359.804375 193.690625 359.804375 193.375 360.625 C191.46749574 363.91978009 188.95180616 366.59363628 186 369 C185.34 369 184.68 369 184 369 C183.71125 369.61875 183.4225 370.2375 183.125 370.875 C182 373 182 373 180 375 C179.70508914 377.27509536 179.70508914 377.27509536 179.76953125 379.92578125 C179.77082031 380.93842041 179.77210938 381.95105957 179.7734375 382.99438477 C179.78632813 384.08936279 179.79921875 385.18434082 179.8125 386.3125 C179.81894531 387.44679443 179.82539063 388.58108887 179.83203125 389.74975586 C179.89286598 396.53330377 180.11649283 403.29039118 180.5 410.0625 C183.49861908 464.37912315 175.2086853 506.90098339 138.84643555 548.50805664 C136.13421935 551.55155853 136.13421935 551.55155853 134 555 C133.34 555 132.68 555 132 555 C131.5973291 555.88594849 131.5973291 555.88594849 131.18652344 556.78979492 C129.99253485 559.01390576 128.75306605 560.54352086 127.015625 562.36328125 C126.41661377 562.9960498 125.81760254 563.62881836 125.20043945 564.28076172 C124.55679443 564.95123535 123.91314941 565.62170898 123.25 566.3125 C121.89408248 567.73785448 120.53862528 569.16364696 119.18359375 570.58984375 C118.49120605 571.31671387 117.79881836 572.04358398 117.08544922 572.79248047 C115.04810641 574.94907772 113.0372873 577.12712274 111.03515625 579.31640625 C110.40899414 579.99856201 109.78283203 580.68071777 109.13769531 581.38354492 C107.94407684 582.68589189 106.75444592 583.99190768 105.56933594 585.30200195 C104.75577637 586.18505005 104.75577637 586.18505005 103.92578125 587.0859375 C103.22062378 587.8601001 103.22062378 587.8601001 102.5012207 588.64990234 C101 590 101 590 98.94213867 590.93212891 C96.5021807 592.27372239 96.12768244 593.50212908 95 596 C93.59545898 597.64746094 93.59545898 597.64746094 91.99609375 599.234375 C91.42052734 599.80800781 90.84496094 600.38164063 90.25195312 600.97265625 C89.35379883 601.85244141 89.35379883 601.85244141 88.4375 602.75 C87.83486328 603.35199219 87.23222656 603.95398438 86.61132812 604.57421875 C82.14038584 609 82.14038584 609 81 609 C80.9498877 607.86498047 80.89977539 606.72996094 80.84814453 605.56054688 C79.38575077 572.60683298 77.79728116 539.76349715 74.24766541 506.95832825 C73.90921359 503.80704175 73.58104329 500.6547641 73.25741577 497.50192261 C73.08186677 495.79569457 72.90354761 494.08974982 72.72280884 492.38406372 C71.16483014 477.46235215 70.65675827 462.65747245 70.68432617 447.6574707 C70.68749438 444.0688658 70.66387583 440.48108267 70.63867188 436.89257812 C70.597512 421.69658675 71.75626219 407.02134716 74 392 C74.31956206 389.70095728 74.63667545 387.4015699 74.94921875 385.1015625 C75.13846924 383.72532715 75.13846924 383.72532715 75.33154297 382.32128906 C77.56531448 365.4010061 79.58929621 346.82601084 74.65625 330.22265625 C74 328 74 328 74 325 C75.86083984 324.68986003 77.72167969 324.37972005 79.58251953 324.06958008 C80.80705841 323.86549026 82.03159729 323.66140045 83.29324341 323.4511261 C83.95744419 323.34042597 84.62164497 323.22972584 85.30597305 323.11567116 C85.99133007 323.00144499 86.67668709 322.88721882 87.3828125 322.76953125 C88.07351711 322.65441381 88.76422173 322.53929638 89.47585678 322.42069054 C90.530483 322.2449195 90.530483 322.2449195 91.60641479 322.06559753 C93.82481956 321.69586341 96.04322433 321.32612928 98.2616291 320.95639515 C99.01688818 320.83051864 99.77214725 320.70464212 100.55029297 320.57495117 C102.07519531 320.32080078 103.60009766 320.06665039 105.125 319.8125 C106.2238855 319.62935242 106.2238855 319.62935242 107.3449707 319.44250488 C108.06885986 319.32185669 108.79274902 319.2012085 109.53857422 319.0769043 C110.61996107 318.89667315 110.61996107 318.89667315 111.72319412 318.71280098 C113.90618134 318.34896978 116.08916855 317.98513858 118.27215576 317.62130737 C118.99194359 317.50134274 119.71173141 317.3813781 120.45333099 317.25777817 C122.63191223 316.89468129 124.81049347 316.53158442 126.98907471 316.16848755 C127.70719707 316.04880049 128.42531944 315.92911343 129.16520309 315.80579948 C133.49273491 315.08454418 133.49273491 315.08454418 137.82026672 314.36328888 C138.8992347 314.18346088 138.8992347 314.18346088 140 314 C142.22680473 313.62886588 144.45360947 313.25773176 146.6804142 312.88659763 C147.40430525 312.76594913 148.1281963 312.64530062 148.87402344 312.52099609 C150.28726196 312.28545634 151.70050049 312.04991659 153.11373901 311.81437683 C153.79105953 311.70149008 154.46838005 311.58860332 155.16622543 311.47229576 C160.11081696 310.64819717 165.05540848 309.82409859 170 309 C169.48696232 298.98038236 168.64308742 289.09296491 167.32873535 279.14227295 C166.96248632 276.36719349 166.6085515 273.59058156 166.25393677 270.81399536 C166.07841507 269.43996592 165.90237884 268.06600209 165.72579956 266.69210815 C165.02804256 261.2573313 164.36443326 255.81980595 163.75 250.375 C163.67015869 249.69066895 163.59031738 249.00633789 163.50805664 248.30126953 C163.08797265 244.51614277 162.92971076 240.80733394 163 237 C162.41436279 237.15033691 161.82872559 237.30067383 161.2253418 237.45556641 C148.23686491 240.77706151 135.22162826 243.89139433 122.12353516 246.75073242 C115.73877141 248.1502632 109.38219036 249.62501215 103.03857422 251.20019531 C91.56491457 254.04272625 80.03493509 256.47728612 68.4375 258.75 C67.68663116 258.89879608 66.93576233 259.04759216 66.16213989 259.20089722 C52.22837541 261.95143719 38.26445787 264.54398356 24 264 C24.09495765 268.05307053 24.20132466 272.10568067 24.31738281 276.15820312 C24.35520032 277.53117098 24.39012652 278.90422215 24.421875 280.27734375 C24.93544924 302.23264244 31.18951543 318.08651721 41.4140625 337.15234375 C49.30184567 351.88560628 49.30184567 351.88560628 48 357 C36.7753672 368.69812847 16.55091382 375.29362215 2 382 C1.34 382.33 0.68 382.66 0 383 C-2.4856044 381.95367126 -4.84608734 380.84429241 -7.24609375 379.625 C-7.97184097 379.262854 -8.6975882 378.90070801 -9.44532776 378.52758789 C-10.98982146 377.75450869 -12.53232575 376.97744444 -14.07299805 376.19677734 C-16.39189901 375.02308064 -18.7176791 373.86408131 -21.04492188 372.70703125 C-43.73487745 361.34695671 -43.73487745 361.34695671 -48 356 C-47.80235281 350.94502341 -46.38760442 347.19231716 -44.0625 342.75 C-43.76182617 342.16790771 -43.46115234 341.58581543 -43.15136719 340.98608398 C-42.1128791 338.98421367 -41.05773896 336.99176309 -40 335 C-38.69241231 332.52617175 -37.38560213 330.05193762 -36.07983398 327.57714844 C-35.21215291 325.93640766 -34.34073908 324.29763388 -33.46508789 322.66113281 C-23.40941385 303.75861998 -23.80292788 284.98363312 -24 264 C-24.94214355 264.0465271 -24.94214355 264.0465271 -25.90332031 264.09399414 C-32.34602894 264.35773478 -38.57497785 263.65083059 -44.9375 262.75 C-46.12218872 262.58600708 -46.12218872 262.58600708 -47.33081055 262.41870117 C-64.15460793 259.92549854 -80.78561804 256.01434063 -97.375 252.3125 C-98.33025574 252.10022766 -99.28551147 251.88795532 -100.26971436 251.66925049 C-116.05238364 248.1604287 -131.79584059 244.49946172 -147.50927734 240.69262695 C-148.26650085 240.51038071 -149.02372437 240.32813446 -149.80389404 240.1403656 C-151.20845878 239.80214671 -152.61236105 239.46115943 -154.01544189 239.11683655 C-156.76508215 238.4560388 -159.15803343 238 -162 238 C-162.08325531 238.75675522 -162.16651062 239.51351044 -162.25228882 240.29319763 C-163.04139474 247.45771391 -163.83528757 254.62167647 -164.63443565 261.785079 C-165.04502631 265.46703295 -165.45382426 269.14916682 -165.85839844 272.83178711 C-166.24958903 276.39195638 -166.6456542 279.9515538 -167.04497147 283.51082039 C-167.26868495 285.51599595 -167.48746932 287.52171948 -167.70614624 289.52745056 C-168.45259577 296.14237017 -169.39729334 302.53697794 -171 309 C-169.91513306 309.16435547 -169.91513306 309.16435547 -168.80834961 309.33203125 C-148.75521535 312.38491036 -128.75340957 315.70282014 -108.76342773 319.14453125 C-96.85631871 321.19189895 -84.93963247 323.1513835 -73 325 C-73.21148682 325.7528125 -73.42297363 326.505625 -73.64086914 327.28125 C-75.95505285 336.23640056 -76.51408189 344.80860491 -76.4375 354 C-76.43578796 354.73311401 -76.43407593 355.46622803 -76.43231201 356.22155762 C-76.37637787 370.32228786 -74.68227882 383.91035401 -72.48730469 397.83984375 C-66.11726019 439.14939085 -70.66094407 481.64058797 -75.32443237 522.88000488 C-76.00004944 528.89278418 -76.56668121 534.9026228 -77 540.9375 C-77.07976074 542.0399707 -77.15952148 543.14244141 -77.24169922 544.27832031 C-78.66474393 565.48806665 -79.24076324 586.75843219 -80 608 C-84.19406961 606.07719557 -87.07985411 603.20862212 -90.296875 599.96875 C-91.18732513 599.08117004 -91.18732513 599.08117004 -92.09576416 598.17565918 C-93.34543718 596.92734419 -94.59259992 595.67651177 -95.83740234 594.42333984 C-97.75007952 592.49992003 -99.67323119 590.58743901 -101.59765625 588.67578125 C-102.81053798 587.46157861 -104.02279952 586.24675607 -105.234375 585.03125 C-106.10144073 584.17025696 -106.10144073 584.17025696 -106.98602295 583.29187012 C-111 579.22993434 -111 579.22993434 -111 577 C-111.66 577 -112.32 577 -113 577 C-113 576.34 -113 575.68 -113 575 C-113.66 575 -114.32 575 -115 575 C-116.26953125 573.7421875 -116.26953125 573.7421875 -117.8125 571.875 C-121.21631846 567.86005756 -124.76985287 564.0199191 -128.375 560.1875 C-133.86071778 554.32689864 -139.01488008 548.29537731 -144 542 C-144.74121094 541.11441406 -145.48242188 540.22882812 -146.24609375 539.31640625 C-148 537 -148 537 -148 535 C-148.66 535 -149.32 535 -150 535 C-151.63954264 532.8241014 -153.14516955 530.65685686 -154.625 528.375 C-155.07012939 527.69348877 -155.51525879 527.01197754 -155.97387695 526.30981445 C-157.32965955 524.21495465 -158.66845025 522.11033345 -160 520 C-160.37527832 519.40783691 -160.75055664 518.81567383 -161.13720703 518.20556641 C-170.88917098 502.60874773 -176.27426574 486.1295535 -179 468 C-179.17724609 466.82888672 -179.35449219 465.65777344 -179.53710938 464.45117188 C-180.19509339 459.06186155 -180.14315188 453.68001845 -180.1328125 448.2578125 C-180.13424759 446.57424149 -180.13424759 446.57424149 -180.13571167 444.85665894 C-180.13639011 442.48484237 -180.1345593 440.11302391 -180.13037109 437.74121094 C-180.12506859 434.17117967 -180.13030139 430.60127713 -180.13671875 427.03125 C-180.1408731 413.01580437 -179.75090248 399.12434752 -178.71435547 385.14868164 C-178.3689895 379.87418016 -178.24731589 376.09481197 -181.75 371.9375 C-183.13396125 370.59055829 -184.55645782 369.28288217 -186 368 C-187.59397255 366.53686038 -189.17245571 365.06103225 -190.73535156 363.56469727 C-191.80476753 362.54416615 -192.89221659 361.54210936 -193.99902344 360.56225586 C-199.01743708 355.83076945 -198.83790552 350.88054264 -199.20135498 344.42176819 C-199.23642151 343.19985275 -199.27148804 341.97793732 -199.30761719 340.71899414 C-199.33784847 339.68318742 -199.33784847 339.68318742 -199.36869049 338.62645531 C-199.43337121 336.32529598 -199.4908521 334.02404192 -199.546875 331.72265625 C-199.56756798 330.90892107 -199.58826096 330.09518589 -199.60958099 329.25679207 C-200.14249987 307.8938864 -200.22238483 286.52803604 -200.24023438 265.15942383 C-200.24463346 260.67626882 -200.25862617 256.19330468 -200.28125 251.71020508 C-200.38919166 229.82232191 -200.44712868 207.98991763 -198.671875 186.16015625 C-198.58415707 185.05211545 -198.58415707 185.05211545 -198.49466705 183.92168999 C-196.58098813 160.56064874 -190.59291941 138.15662012 -175 120 C-174.34 120 -173.68 120 -173 120 C-172.78085938 119.46503906 -172.56171875 118.93007812 -172.3359375 118.37890625 C-170.53076524 115.16443283 -168.12915587 112.61190672 -165.625 109.9375 C-164.83730225 109.09119019 -164.83730225 109.09119019 -164.03369141 108.2277832 C-160.27619887 104.24082121 -156.39540326 100.40874775 -152.375 96.6875 C-151.86662598 96.21368896 -151.35825195 95.73987793 -150.83447266 95.25170898 C-147.24936446 92 -147.24936446 92 -145 92 C-145 91.34 -145 90.68 -145 90 C-142.7921097 88.10664156 -140.58187761 86.35568613 -138.25 84.625 C-137.5398877 84.09551758 -136.82977539 83.56603516 -136.09814453 83.02050781 C-127.45552554 76.70410205 -118.26073889 71.34709049 -109 66 C-107.67933824 65.22715902 -106.35899733 64.45376934 -105.0390625 63.6796875 C-99.79736348 60.62527409 -94.51723463 57.72104928 -89.0625 55.0625 C-83.68158858 52.42944068 -78.6013349 49.42574358 -73.48974609 46.31445312 C-69.07842922 43.63273303 -64.61342811 41.09865506 -60.06640625 38.65234375 C-48.5123326 32.42639069 -37.05676814 26.08009333 -26 19 C-25.39559082 18.61344238 -24.79118164 18.22688477 -24.16845703 17.82861328 C-15.66263477 12.35980993 -7.67447451 6.60547286 0 0 Z " fill="#FFFFFF" transform="translate(201,0)"/>
</svg>
