<?xml version="1.0" encoding="UTF-8"?>
<svg version="1.1" xmlns="http://www.w3.org/2000/svg" width="2277" height="2052">
<path d="M0 0 C443.52 0 887.04 0 1344 0 C1338.76498712 10.47002576 1333.50308578 20.9166517 1328.125 31.3125 C1327.77828247 31.9835376 1327.43156494 32.6545752 1327.07434082 33.34594727 C1322.23043625 42.72078102 1317.35191448 52.07638283 1312.421875 61.40625 C1309.59431635 66.76026289 1306.7977789 72.1303827 1304 77.5 C1299.94789384 85.27531594 1295.87808648 93.04091983 1291.7890625 100.796875 C1288.50913642 107.02246719 1285.25229922 113.25993772 1282 119.5 C1268.77746666 144.85693844 1268.77746666 144.85693844 1262.67578125 156.17578125 C1254.34235502 171.64087067 1246.22602675 187.20455216 1238.21502686 202.83901978 C1237.84629456 203.55858856 1237.47756226 204.27815735 1237.09765625 205.01953125 C1236.73617493 205.72500092 1236.3746936 206.43047058 1236.0022583 207.15731812 C1232.5028024 213.98084266 1228.93827096 220.76888592 1225.3515625 227.546875 C1222.54432662 232.85238184 1219.77331263 238.17670536 1217 243.5 C1212.94793661 251.27533811 1208.87808638 259.04092004 1204.7890625 266.796875 C1201.50913682 273.02246641 1198.25213914 279.25985485 1195 285.5 C1190.94780821 293.27527155 1186.8780867 301.04091943 1182.7890625 308.796875 C1179.50913682 315.02246641 1176.25213914 321.25985485 1173 327.5 C1168.94780821 335.27527155 1164.8780867 343.04091943 1160.7890625 350.796875 C1157.50913682 357.02246641 1154.25213914 363.25985485 1151 369.5 C1146.94780821 377.27527155 1142.8780867 385.04091943 1138.7890625 392.796875 C1135.50913642 399.02246719 1132.25229922 405.25993772 1129 411.5 C1115.77746666 436.85693844 1115.77746666 436.85693844 1109.67578125 448.17578125 C1101.34235502 463.64087067 1093.22602675 479.20455216 1085.21502686 494.83901978 C1084.84629456 495.55858856 1084.47756226 496.27815735 1084.09765625 497.01953125 C1083.73617493 497.72500092 1083.3746936 498.43047058 1083.0022583 499.15731812 C1079.5028024 505.98084266 1075.93827096 512.76888592 1072.3515625 519.546875 C1069.54432662 524.85238184 1066.77331263 530.17670536 1064 535.5 C1059.94793661 543.27533811 1055.87808638 551.04092004 1051.7890625 558.796875 C1048.50913682 565.02246641 1045.25213914 571.25985485 1042 577.5 C1037.94780821 585.27527155 1033.8780867 593.04091943 1029.7890625 600.796875 C1026.50913678 607.02246649 1023.25215634 613.25986375 1020 619.5 C1016.32613293 626.54892239 1012.64183943 633.5920386 1008.9375 640.625 C1003.60933654 650.74176606 998.30549504 660.87132765 993 671 C1178.46 671 1363.92 671 1555 671 C1554.18268758 675.08656209 1553.50558988 677.31984256 1551.62890625 680.8515625 C1551.14228516 681.77517578 1550.65566406 682.69878906 1550.15429688 683.65039062 C1549.62900391 684.63201172 1549.10371094 685.61363281 1548.5625 686.625 C1547.74942383 688.16317383 1547.74942383 688.16317383 1546.91992188 689.73242188 C1545.81006338 691.83113437 1544.69759805 693.92847038 1543.58251953 696.02441406 C1541.77538047 699.42234847 1539.98182884 702.82725246 1538.19116211 706.23388672 C1537.39203163 707.75418373 1536.59205349 709.27403545 1535.79125977 710.79345703 C1532.50987612 717.01980589 1529.25276224 723.25865925 1526 729.5 C1521.94780821 737.27527155 1517.8780867 745.04091943 1513.7890625 752.796875 C1510.50913682 759.02246641 1507.25213914 765.25985485 1504 771.5 C1499.94780821 779.27527155 1495.8780867 787.04091943 1491.7890625 794.796875 C1488.50913682 801.02246641 1485.25213914 807.25985485 1482 813.5 C1477.94780821 821.27527155 1473.8780867 829.04091943 1469.7890625 836.796875 C1466.50913642 843.02246719 1463.25229922 849.25993772 1460 855.5 C1446.77746666 880.85693844 1446.77746666 880.85693844 1440.67578125 892.17578125 C1432.34235502 907.64087067 1424.22602675 923.20455216 1416.21502686 938.83901978 C1415.84629456 939.55858856 1415.47756226 940.27815735 1415.09765625 941.01953125 C1414.73617493 941.72500092 1414.3746936 942.43047058 1414.0022583 943.15731812 C1410.5028024 949.98084266 1406.93827096 956.76888592 1403.3515625 963.546875 C1400.54432662 968.85238184 1397.77331263 974.17670536 1395 979.5 C1390.94793661 987.27533811 1386.87808638 995.04092004 1382.7890625 1002.796875 C1379.50913682 1009.02246641 1376.25213914 1015.25985485 1373 1021.5 C1368.94780821 1029.27527155 1364.8780867 1037.04091943 1360.7890625 1044.796875 C1357.50913682 1051.02246641 1354.25213914 1057.25985485 1351 1063.5 C1346.94780821 1071.27527155 1342.8780867 1079.04091943 1338.7890625 1086.796875 C1335.50913682 1093.02246641 1332.25213914 1099.25985485 1329 1105.5 C1324.94659665 1113.27759627 1320.87733969 1121.04646445 1316.78466797 1128.8034668 C1314.55387809 1133.03523711 1312.33580499 1137.2732154 1310.1328125 1141.51953125 C1305.3496989 1150.73470424 1300.52223673 1159.91272636 1295.5 1169 C1288.85460505 1181.05185634 1282.62923572 1193.31922975 1276.38085938 1205.58007812 C1271.02740756 1216.08073197 1265.5861374 1226.53085642 1260.08013916 1236.95230103 C1257.70281499 1241.45916871 1255.35259237 1245.98019145 1253 1250.5 C1248.94820938 1258.27547994 1244.87808579 1266.04092115 1240.7890625 1273.796875 C1237.50913682 1280.02246641 1234.25213914 1286.25985485 1231 1292.5 C1226.94780821 1300.27527155 1222.8780867 1308.04091943 1218.7890625 1315.796875 C1215.50913682 1322.02246641 1212.25213914 1328.25985485 1209 1334.5 C1204.94780821 1342.27527155 1200.8780867 1350.04091943 1196.7890625 1357.796875 C1193.50913682 1364.02246641 1190.25213914 1370.25985485 1187 1376.5 C1182.94659665 1384.27759627 1178.87733969 1392.04646445 1174.78466797 1399.8034668 C1172.55387809 1404.03523711 1170.33580499 1408.2732154 1168.1328125 1412.51953125 C1163.3496989 1421.73470424 1158.52223673 1430.91272636 1153.5 1440 C1146.85460505 1452.05185634 1140.62923572 1464.31922975 1134.38085938 1476.58007812 C1129.02740756 1487.08073197 1123.5861374 1497.53085642 1118.08013916 1507.95230103 C1115.70281499 1512.45916871 1113.35259237 1516.98019145 1111 1521.5 C1106.94820938 1529.27547994 1102.87808579 1537.04092115 1098.7890625 1544.796875 C1095.50913682 1551.02246641 1092.25213914 1557.25985485 1089 1563.5 C1084.94780821 1571.27527155 1080.8780867 1579.04091943 1076.7890625 1586.796875 C1073.50913682 1593.02246641 1070.25213914 1599.25985485 1067 1605.5 C1062.94780821 1613.27527155 1058.8780867 1621.04091943 1054.7890625 1628.796875 C1051.50913682 1635.02246641 1048.25213914 1641.25985485 1045 1647.5 C1040.94659665 1655.27759627 1036.87733969 1663.04646445 1032.78466797 1670.8034668 C1030.55387809 1675.03523711 1028.33580499 1679.2732154 1026.1328125 1683.51953125 C1021.3496989 1692.73470424 1016.52223673 1701.91272636 1011.5 1711 C1004.85460505 1723.05185634 998.62923572 1735.31922975 992.38085938 1747.58007812 C987.02740756 1758.08073197 981.5861374 1768.53085642 976.08013916 1778.95230103 C973.70281499 1783.45916871 971.35259237 1787.98019145 969 1792.5 C964.94820938 1800.27547994 960.87808579 1808.04092115 956.7890625 1815.796875 C953.50913682 1822.02246641 950.25213914 1828.25985485 947 1834.5 C942.94780821 1842.27527155 938.8780867 1850.04091943 934.7890625 1857.796875 C931.50913682 1864.02246641 928.25213914 1870.25985485 925 1876.5 C920.94780821 1884.27527155 916.8780867 1892.04091943 912.7890625 1899.796875 C909.50913682 1906.02246641 906.25213914 1912.25985485 903 1918.5 C898.94659665 1926.27759627 894.87733969 1934.04646445 890.78466797 1941.8034668 C888.55387809 1946.03523711 886.33580499 1950.2732154 884.1328125 1954.51953125 C879.3496989 1963.73470424 874.52223673 1972.91272636 869.5 1982 C862.85460505 1994.05185634 856.62923572 2006.31922975 850.38085938 2018.58007812 C849.96929596 2019.38693558 849.55773254 2020.19379303 849.13369751 2021.02510071 C848.37982802 2022.5037859 847.62703051 2023.98301866 846.87582397 2025.46305847 C842.342942 2034.35860091 837.65122492 2043.16267265 833 2052 C389.48 2052 -54.04 2052 -511 2052 C-505.76498712 2041.52997424 -500.50308578 2031.0833483 -495.125 2020.6875 C-494.77828247 2020.0164624 -494.43156494 2019.3454248 -494.07434082 2018.65405273 C-489.23043625 2009.27921898 -484.35191448 1999.92361717 -479.421875 1990.59375 C-476.59431635 1985.23973711 -473.7977789 1979.8696173 -471 1974.5 C-466.94789384 1966.72468406 -462.87808648 1958.95908017 -458.7890625 1951.203125 C-455.50913682 1944.97753359 -452.25213914 1938.74014515 -449 1932.5 C-444.94780821 1924.72472845 -440.8780867 1916.95908057 -436.7890625 1909.203125 C-433.50913682 1902.97753359 -430.25213914 1896.74014515 -427 1890.5 C-422.94659665 1882.72240373 -418.87733969 1874.95353555 -414.78466797 1867.1965332 C-412.55387809 1862.96476289 -410.33580499 1858.7267846 -408.1328125 1854.48046875 C-403.3496989 1845.26529576 -398.52223673 1836.08727364 -393.5 1827 C-386.85460505 1814.94814366 -380.62923572 1802.68077025 -374.38085938 1790.41992188 C-369.02740756 1779.91926803 -363.5861374 1769.46914358 -358.08013916 1759.04769897 C-355.70281499 1754.54083129 -353.35259237 1750.01980855 -351 1745.5 C-346.94820938 1737.72452006 -342.87808579 1729.95907885 -338.7890625 1722.203125 C-335.50913682 1715.97753359 -332.25213914 1709.74014515 -329 1703.5 C-324.94780821 1695.72472845 -320.8780867 1687.95908057 -316.7890625 1680.203125 C-313.50913682 1673.97753359 -310.25213914 1667.74014515 -307 1661.5 C-302.94780821 1653.72472845 -298.8780867 1645.95908057 -294.7890625 1638.203125 C-291.50913682 1631.97753359 -288.25213914 1625.74014515 -285 1619.5 C-280.94659665 1611.72240373 -276.87733969 1603.95353555 -272.78466797 1596.1965332 C-270.55387809 1591.96476289 -268.33580499 1587.7267846 -266.1328125 1583.48046875 C-261.3496989 1574.26529576 -256.52223673 1565.08727364 -251.5 1556 C-244.85460505 1543.94814366 -238.62923572 1531.68077025 -232.38085938 1519.41992188 C-227.02740756 1508.91926803 -221.5861374 1498.46914358 -216.08013916 1488.04769897 C-213.70281499 1483.54083129 -211.35259237 1479.01980855 -209 1474.5 C-204.94820938 1466.72452006 -200.87808579 1458.95907885 -196.7890625 1451.203125 C-193.50913678 1444.97753351 -190.25215634 1438.74013625 -187 1432.5 C-183.32613293 1425.45107761 -179.64183943 1418.4079614 -175.9375 1411.375 C-170.60933654 1401.25823394 -165.30549504 1391.12867235 -160 1381 C-345.46 1381 -530.92 1381 -722 1381 C-721.18268758 1376.91343791 -720.50558988 1374.68015744 -718.62890625 1371.1484375 C-718.14228516 1370.22482422 -717.65566406 1369.30121094 -717.15429688 1368.34960938 C-716.62900391 1367.36798828 -716.10371094 1366.38636719 -715.5625 1365.375 C-714.74942383 1363.83682617 -714.74942383 1363.83682617 -713.91992188 1362.26757812 C-712.81006338 1360.16886563 -711.69759805 1358.07152962 -710.58251953 1355.97558594 C-708.77538047 1352.57765153 -706.98182884 1349.17274754 -705.19116211 1345.76611328 C-704.39203163 1344.24581627 -703.59205349 1342.72596455 -702.79125977 1341.20654297 C-699.50987612 1334.98019411 -696.25276224 1328.74134075 -693 1322.5 C-688.94780821 1314.72472845 -684.8780867 1306.95908057 -680.7890625 1299.203125 C-677.50913682 1292.97753359 -674.25213914 1286.74014515 -671 1280.5 C-666.94780821 1272.72472845 -662.8780867 1264.95908057 -658.7890625 1257.203125 C-655.50913682 1250.97753359 -652.25213914 1244.74014515 -649 1238.5 C-644.94780821 1230.72472845 -640.8780867 1222.95908057 -636.7890625 1215.203125 C-633.50913682 1208.97753359 -630.25213914 1202.74014515 -627 1196.5 C-622.94659665 1188.72240373 -618.87733969 1180.95353555 -614.78466797 1173.1965332 C-612.55387809 1168.96476289 -610.33580499 1164.7267846 -608.1328125 1160.48046875 C-603.3496989 1151.26529576 -598.52223673 1142.08727364 -593.5 1133 C-586.85460505 1120.94814366 -580.62923572 1108.68077025 -574.38085938 1096.41992188 C-569.02740756 1085.91926803 -563.5861374 1075.46914358 -558.08013916 1065.04769897 C-555.70281499 1060.54083129 -553.35259237 1056.01980855 -551 1051.5 C-546.94820938 1043.72452006 -542.87808579 1035.95907885 -538.7890625 1028.203125 C-535.50913682 1021.97753359 -532.25213914 1015.74014515 -529 1009.5 C-524.94780821 1001.72472845 -520.8780867 993.95908057 -516.7890625 986.203125 C-513.50913682 979.97753359 -510.25213914 973.74014515 -507 967.5 C-502.94780821 959.72472845 -498.8780867 951.95908057 -494.7890625 944.203125 C-491.50913682 937.97753359 -488.25213914 931.74014515 -485 925.5 C-480.94659665 917.72240373 -476.87733969 909.95353555 -472.78466797 902.1965332 C-470.55387809 897.96476289 -468.33580499 893.7267846 -466.1328125 889.48046875 C-461.3496989 880.26529576 -456.52223673 871.08727364 -451.5 862 C-444.85460505 849.94814366 -438.62923572 837.68077025 -432.38085938 825.41992188 C-427.02740756 814.91926803 -421.5861374 804.46914358 -416.08013916 794.04769897 C-413.70281499 789.54083129 -411.35259237 785.01980855 -409 780.5 C-404.94820938 772.72452006 -400.87808579 764.95907885 -396.7890625 757.203125 C-393.50913682 750.97753359 -390.25213914 744.74014515 -387 738.5 C-382.94780821 730.72472845 -378.8780867 722.95908057 -374.7890625 715.203125 C-371.50913682 708.97753359 -368.25213914 702.74014515 -365 696.5 C-360.94780821 688.72472845 -356.8780867 680.95908057 -352.7890625 673.203125 C-349.50913682 666.97753359 -346.25213914 660.74014515 -343 654.5 C-338.94780821 646.72472845 -334.8780867 638.95908057 -330.7890625 631.203125 C-327.50913642 624.97753281 -324.25229922 618.74006228 -321 612.5 C-307.77746666 587.14306156 -307.77746666 587.14306156 -301.67578125 575.82421875 C-293.34235502 560.35912933 -285.22602675 544.79544784 -277.21502686 529.16098022 C-276.84629456 528.44141144 -276.47756226 527.72184265 -276.09765625 526.98046875 C-275.73617493 526.27499908 -275.3746936 525.56952942 -275.0022583 524.84268188 C-271.5028024 518.01915734 -267.93827096 511.23111408 -264.3515625 504.453125 C-261.54432662 499.14761816 -258.77331263 493.82329464 -256 488.5 C-251.94793661 480.72466189 -247.87808638 472.95907996 -243.7890625 465.203125 C-240.50913682 458.97753359 -237.25213914 452.74014515 -234 446.5 C-229.94780821 438.72472845 -225.8780867 430.95908057 -221.7890625 423.203125 C-218.50913682 416.97753359 -215.25213914 410.74014515 -212 404.5 C-207.94780821 396.72472845 -203.8780867 388.95908057 -199.7890625 381.203125 C-196.50913682 374.97753359 -193.25213914 368.74014515 -190 362.5 C-185.94659665 354.72240373 -181.87733969 346.95353555 -177.78466797 339.1965332 C-175.55387809 334.96476289 -173.33580499 330.7267846 -171.1328125 326.48046875 C-166.3496989 317.26529576 -161.52223673 308.08727364 -156.5 299 C-149.85460505 286.94814366 -143.62923572 274.68077025 -137.38085938 262.41992188 C-132.02740756 251.91926803 -126.5861374 241.46914358 -121.08013916 231.04769897 C-118.70281499 226.54083129 -116.35259237 222.01980855 -114 217.5 C-109.94820938 209.72452006 -105.87808579 201.95907885 -101.7890625 194.203125 C-98.50913682 187.97753359 -95.25213914 181.74014515 -92 175.5 C-87.94780821 167.72472845 -83.8780867 159.95908057 -79.7890625 152.203125 C-76.50913682 145.97753359 -73.25213914 139.74014515 -70 133.5 C-65.94780821 125.72472845 -61.8780867 117.95908057 -57.7890625 110.203125 C-54.50913682 103.97753359 -51.25213914 97.74014515 -48 91.5 C-43.94659665 83.72240373 -39.87733969 75.95353555 -35.78466797 68.1965332 C-33.55387809 63.96476289 -31.33580499 59.7267846 -29.1328125 55.48046875 C-23.66117987 44.9388979 -18.12655599 34.44322156 -12.35986328 24.05932617 C-7.98995401 16.13935039 -4.05939292 8.11878584 0 0 Z " fill="#0F52B9" transform="translate(722,0)"/>
<path d="M0 0 C0.495 0.99 0.495 0.99 1 2 C0.07885742 4.22045898 0.07885742 4.22045898 -1.39453125 6.99609375 C-2.20192749 8.53160889 -2.20192749 8.53160889 -3.02563477 10.09814453 C-3.61530029 11.20013184 -4.20496582 12.30211914 -4.8125 13.4375 C-5.41054443 14.5704248 -6.00858887 15.70334961 -6.62475586 16.87060547 C-7.84219612 19.17543495 -9.06297511 21.47850399 -10.28710938 23.77978516 C-12.16371245 27.30777754 -14.0253861 30.8433758 -15.88354492 34.38110352 C-17.07759731 36.65373459 -18.27500776 38.92457482 -19.47265625 41.1953125 C-22.33107341 46.62188312 -25.16550979 52.06090379 -28 57.5 C-32.05217037 65.27528266 -36.12191336 73.04091953 -40.2109375 80.796875 C-43.49086318 87.02246641 -46.74786086 93.25985485 -50 99.5 C-54.05219179 107.27527155 -58.1219133 115.04091943 -62.2109375 122.796875 C-65.49086318 129.02246641 -68.74786086 135.25985485 -72 141.5 C-76.05219179 149.27527155 -80.1219133 157.04091943 -84.2109375 164.796875 C-87.49086358 171.02246719 -90.74770078 177.25993772 -94 183.5 C-107.22253334 208.85693844 -107.22253334 208.85693844 -113.32421875 220.17578125 C-121.65764498 235.64087067 -129.77397325 251.20455216 -137.78497314 266.83901978 C-138.15370544 267.55858856 -138.52243774 268.27815735 -138.90234375 269.01953125 C-139.26382507 269.72500092 -139.6253064 270.43047058 -139.9977417 271.15731812 C-143.4971976 277.98084266 -147.06172904 284.76888592 -150.6484375 291.546875 C-153.45567338 296.85238184 -156.22668737 302.17670536 -159 307.5 C-163.05206339 315.27533811 -167.12191362 323.04092004 -171.2109375 330.796875 C-174.49086318 337.02246641 -177.74786086 343.25985485 -181 349.5 C-185.05219179 357.27527155 -189.1219133 365.04091943 -193.2109375 372.796875 C-196.49086318 379.02246641 -199.74786086 385.25985485 -203 391.5 C-207.05219179 399.27527155 -211.1219133 407.04091943 -215.2109375 414.796875 C-218.49086318 421.02246641 -221.74786086 427.25985485 -225 433.5 C-229.05340335 441.27759627 -233.12266031 449.04646445 -237.21533203 456.8034668 C-239.44612191 461.03523711 -241.66419501 465.2732154 -243.8671875 469.51953125 C-248.6503011 478.73470424 -253.47776327 487.91272636 -258.5 497 C-265.14539495 509.05185634 -271.37076428 521.31922975 -277.61914062 533.58007812 C-282.97259244 544.08073197 -288.4138626 554.53085642 -293.91986084 564.95230103 C-296.29718501 569.45916871 -298.64740763 573.98019145 -301 578.5 C-305.05179062 586.27547994 -309.12191421 594.04092115 -313.2109375 601.796875 C-316.49086318 608.02246641 -319.74786086 614.25985485 -323 620.5 C-327.05219179 628.27527155 -331.1219133 636.04091943 -335.2109375 643.796875 C-338.49086318 650.02246641 -341.74786086 656.25985485 -345 662.5 C-349.05219179 670.27527155 -353.1219133 678.04091943 -357.2109375 685.796875 C-360.49086318 692.02246641 -363.74786086 698.25985485 -367 704.5 C-371.05340335 712.27759627 -375.12266031 720.04646445 -379.21533203 727.8034668 C-381.44612191 732.03523711 -383.66419501 736.2732154 -385.8671875 740.51953125 C-390.6503011 749.73470424 -395.47776327 758.91272636 -400.5 768 C-407.14539495 780.05185634 -413.37076428 792.31922975 -419.61914062 804.58007812 C-424.97259244 815.08073197 -430.4138626 825.53085642 -435.91986084 835.95230103 C-438.29718501 840.45916871 -440.64740763 844.98019145 -443 849.5 C-447.05179062 857.27547994 -451.12191421 865.04092115 -455.2109375 872.796875 C-458.49086318 879.02246641 -461.74786086 885.25985485 -465 891.5 C-469.05219179 899.27527155 -473.1219133 907.04091943 -477.2109375 914.796875 C-480.49086318 921.02246641 -483.74786086 927.25985485 -487 933.5 C-491.05219179 941.27527155 -495.1219133 949.04091943 -499.2109375 956.796875 C-502.49086318 963.02246641 -505.74786086 969.25985485 -509 975.5 C-513.05340335 983.27759627 -517.12266031 991.04646445 -521.21533203 998.8034668 C-523.44612191 1003.03523711 -525.66419501 1007.2732154 -527.8671875 1011.51953125 C-532.6503011 1020.73470424 -537.47776327 1029.91272636 -542.5 1039 C-549.14539495 1051.05185634 -555.37076428 1063.31922975 -561.61914062 1075.58007812 C-566.97259244 1086.08073197 -572.4138626 1096.53085642 -577.91986084 1106.95230103 C-580.29718501 1111.45916871 -582.64740763 1115.98019145 -585 1120.5 C-589.05179062 1128.27547994 -593.12191421 1136.04092115 -597.2109375 1143.796875 C-600.49086318 1150.02246641 -603.74786086 1156.25985485 -607 1162.5 C-611.05219179 1170.27527155 -615.1219133 1178.04091943 -619.2109375 1185.796875 C-622.49086318 1192.02246641 -625.74786086 1198.25985485 -629 1204.5 C-633.05219179 1212.27527155 -637.1219133 1220.04091943 -641.2109375 1227.796875 C-644.49086318 1234.02246641 -647.74786086 1240.25985485 -651 1246.5 C-655.05340335 1254.27759627 -659.12266031 1262.04646445 -663.21533203 1269.8034668 C-665.44612191 1274.03523711 -667.66419501 1278.2732154 -669.8671875 1282.51953125 C-674.6503011 1291.73470424 -679.47776327 1300.91272636 -684.5 1310 C-691.14539495 1322.05185634 -697.37076428 1334.31922975 -703.61914062 1346.58007812 C-704.03070404 1347.38693558 -704.44226746 1348.19379303 -704.86630249 1349.02510071 C-705.62017198 1350.5037859 -706.37296949 1351.98301866 -707.12417603 1353.46305847 C-711.657058 1362.35860091 -716.34877508 1371.16267265 -721 1380 C-1164.52 1380 -1608.04 1380 -2065 1380 C-2059.76498712 1369.52997424 -2054.50308578 1359.0833483 -2049.125 1348.6875 C-2048.77828247 1348.0164624 -2048.43156494 1347.3454248 -2048.07434082 1346.65405273 C-2043.23043625 1337.27921898 -2038.35191448 1327.92361717 -2033.421875 1318.59375 C-2030.59431635 1313.23973711 -2027.7977789 1307.8696173 -2025 1302.5 C-2020.94789384 1294.72468406 -2016.87808648 1286.95908017 -2012.7890625 1279.203125 C-2009.50913682 1272.97753359 -2006.25213914 1266.74014515 -2003 1260.5 C-1998.94780821 1252.72472845 -1994.8780867 1244.95908057 -1990.7890625 1237.203125 C-1987.50913682 1230.97753359 -1984.25213914 1224.74014515 -1981 1218.5 C-1976.94659665 1210.72240373 -1972.87733969 1202.95353555 -1968.78466797 1195.1965332 C-1966.55387809 1190.96476289 -1964.33580499 1186.7267846 -1962.1328125 1182.48046875 C-1957.3496989 1173.26529576 -1952.52223673 1164.08727364 -1947.5 1155 C-1940.85460505 1142.94814366 -1934.62923572 1130.68077025 -1928.38085938 1118.41992188 C-1923.02740756 1107.91926803 -1917.5861374 1097.46914358 -1912.08013916 1087.04769897 C-1909.70281499 1082.54083129 -1907.35259237 1078.01980855 -1905 1073.5 C-1900.94820938 1065.72452006 -1896.87808579 1057.95907885 -1892.7890625 1050.203125 C-1889.50913682 1043.97753359 -1886.25213914 1037.74014515 -1883 1031.5 C-1878.94780821 1023.72472845 -1874.8780867 1015.95908057 -1870.7890625 1008.203125 C-1867.50913682 1001.97753359 -1864.25213914 995.74014515 -1861 989.5 C-1856.94780821 981.72472845 -1852.8780867 973.95908057 -1848.7890625 966.203125 C-1845.50913682 959.97753359 -1842.25213914 953.74014515 -1839 947.5 C-1834.94659665 939.72240373 -1830.87733969 931.95353555 -1826.78466797 924.1965332 C-1824.55387809 919.96476289 -1822.33580499 915.7267846 -1820.1328125 911.48046875 C-1815.3496989 902.26529576 -1810.52223673 893.08727364 -1805.5 884 C-1798.85460505 871.94814366 -1792.62923572 859.68077025 -1786.38085938 847.41992188 C-1781.02740756 836.91926803 -1775.5861374 826.46914358 -1770.08013916 816.04769897 C-1767.70281499 811.54083129 -1765.35259237 807.01980855 -1763 802.5 C-1758.94820938 794.72452006 -1754.87808579 786.95907885 -1750.7890625 779.203125 C-1747.50913624 772.97753248 -1744.25236813 766.74002662 -1741 760.5 C-1739.48092489 757.58757467 -1737.96154411 754.67530922 -1736.44189453 751.76318359 C-1735.5180852 749.99283581 -1734.59455664 748.22234146 -1733.67138672 746.45166016 C-1728.8492407 737.20998669 -1723.95072072 728.0146439 -1718.9375 718.875 C-1718.45982178 718.00270752 -1717.98214355 717.13041504 -1717.48999023 716.23168945 C-1717.04856689 715.43077881 -1716.60714355 714.62986816 -1716.15234375 713.8046875 C-1715.76038818 713.09296387 -1715.36843262 712.38124023 -1714.96459961 711.64794922 C-1714 710 -1714 710 -1713 709 C-1711.30271955 708.90540805 -1709.60145323 708.88191509 -1707.90154272 708.88549882 C-1706.78727548 708.88540526 -1705.67300824 708.88531171 -1704.52497533 708.88521531 C-1703.2829625 708.89023985 -1702.04094967 708.89526438 -1700.76130009 708.90044117 C-1699.45029588 708.9017933 -1698.13929167 708.90314544 -1696.78856006 708.90453854 C-1693.88720149 708.90761313 -1690.98587331 708.91394582 -1688.08452625 708.92266492 C-1683.33077347 708.93694737 -1678.57702368 708.94430132 -1673.823255 708.95095891 C-1666.83136067 708.96150248 -1659.83948036 708.97556002 -1652.84759712 708.99183464 C-1641.47346875 709.01819145 -1630.09933383 709.03722613 -1618.72518921 709.05499268 C-1615.75487791 709.0596745 -1612.78456663 709.06436801 -1609.81425536 709.06906489 C-1607.80244768 709.07224517 -1605.79063999 709.07541653 -1603.77883229 709.07857911 C-1596.51786732 709.09005704 -1589.25690424 709.1024597 -1581.99594128 709.11513484 C-1551.61944486 709.16766097 -1521.2429762 709.19727396 -1490.86643982 709.21342468 C-1488.65023222 709.21463333 -1486.43402462 709.21584364 -1484.21781702 709.2170556 C-1464.98865274 709.22747324 -1445.75948784 709.23654843 -1426.53032244 709.24460873 C-1411.3830888 709.25096038 -1396.23585578 709.25813467 -1381.08862305 709.26635742 C-1379.92677714 709.26697609 -1378.76493123 709.26759476 -1377.56787787 709.26823218 C-1339.91736453 709.28858879 -1302.26706561 709.35184736 -1264.61664649 709.43634667 C-1225.91837921 709.52294968 -1187.22032249 709.56340152 -1148.52195561 709.54698175 C-1143.05418225 709.54468958 -1137.58640883 709.54293858 -1132.11863518 709.54152489 C-1131.04252107 709.54123216 -1129.96640696 709.54093943 -1128.85768333 709.54063783 C-1111.54667431 709.53731156 -1094.23612159 709.58277048 -1076.92524467 709.64672993 C-1059.51575269 709.71005221 -1042.10681247 709.72252691 -1024.69724423 709.6833363 C-1014.35794444 709.66161508 -1004.02042784 709.67877203 -993.68135638 709.75214048 C-986.7665581 709.7973479 -979.8530023 709.79133575 -972.93821871 709.74450167 C-969.0025879 709.7192908 -965.07037235 709.71557936 -961.13502712 709.7746406 C-946.01724542 709.98750225 -933.25415987 710.11701984 -921.46789545 699.40927039 C-920.23481046 698.20872976 -919.01557392 696.99375935 -917.81234752 695.76329496 C-914.85493409 692.88592617 -911.53445392 690.5251426 -908.1875 688.125 C-907.10601685 687.31699951 -907.10601685 687.31699951 -906.00268555 686.49267578 C-905.4281665 686.0645459 -904.85364746 685.63641602 -904.26171875 685.1953125 C-899.31554412 681.49712829 -894.40864068 677.74777474 -889.5 674 C-883.35235162 669.30751747 -877.19463974 664.63028863 -871 660 C-861.28233759 652.7337627 -851.64492906 645.36233038 -842 638 C-831.72225873 630.1546207 -821.44413852 622.31181297 -811.08764648 614.57055664 C-805.61661142 610.47568412 -800.18154538 606.3345583 -794.75 602.1875 C-787.69219358 596.79876942 -780.61025705 591.44433019 -773.5 586.125 C-767.13934919 581.36534593 -760.81040893 576.57148878 -754.5234375 571.71484375 C-743.11508401 562.90976142 -731.63238023 554.19997341 -720.08959961 545.57202148 C-714.6179169 541.47665581 -709.18219242 537.33505232 -703.75 533.1875 C-696.69219358 527.79876942 -689.61025705 522.44433019 -682.5 517.125 C-676.13934919 512.36534593 -669.81040893 507.57148878 -663.5234375 502.71484375 C-652.11508401 493.90976142 -640.63238023 485.19997341 -629.08959961 476.57202148 C-623.6179169 472.47665581 -618.18219242 468.33505232 -612.75 464.1875 C-605.69219358 458.79876942 -598.61025705 453.44433019 -591.5 448.125 C-585.13934919 443.36534593 -578.81040893 438.57148878 -572.5234375 433.71484375 C-561.11508401 424.90976142 -549.63238023 416.19997341 -538.08959961 407.57202148 C-532.6179169 403.47665581 -527.18219242 399.33505232 -521.75 395.1875 C-514.69219358 389.79876942 -507.61025705 384.44433019 -500.5 379.125 C-494.13934919 374.36534593 -487.81040893 369.57148878 -481.5234375 364.71484375 C-470.11508401 355.90976142 -458.63238023 347.19997341 -447.08959961 338.57202148 C-441.6179169 334.47665581 -436.18219242 330.33505232 -430.75 326.1875 C-423.69219358 320.79876942 -416.61025705 315.44433019 -409.5 310.125 C-403.13934919 305.36534593 -396.81040893 300.57148878 -390.5234375 295.71484375 C-379.11508401 286.90976142 -367.63238023 278.19997341 -356.08959961 269.57202148 C-350.6179169 265.47665581 -345.18219242 261.33505232 -339.75 257.1875 C-332.69219358 251.79876942 -325.61025705 246.44433019 -318.5 241.125 C-312.13934919 236.36534593 -305.81040893 231.57148878 -299.5234375 226.71484375 C-288.11508401 217.90976142 -276.63238023 209.19997341 -265.08959961 200.57202148 C-259.6179169 196.47665581 -254.18219242 192.33505232 -248.75 188.1875 C-241.69219358 182.79876942 -234.61025705 177.44433019 -227.5 172.125 C-221.13934919 167.36534593 -214.81040893 162.57148878 -208.5234375 157.71484375 C-197.11508401 148.90976142 -185.63238023 140.19997341 -174.08959961 131.57202148 C-168.6179169 127.47665581 -163.18219242 123.33505232 -157.75 119.1875 C-150.69219358 113.79876942 -143.61025705 108.44433019 -136.5 103.125 C-130.13934919 98.36534593 -123.81040893 93.57148878 -117.5234375 88.71484375 C-106.11508401 79.90976142 -94.63238023 71.19997341 -83.08959961 62.57202148 C-77.6179169 58.47665581 -72.18219242 54.33505232 -66.75 50.1875 C-59.69219358 44.79876942 -52.61025705 39.44433019 -45.5 34.125 C-39.15792516 29.37924627 -32.84746449 24.59931813 -26.578125 19.7578125 C-21.66829713 15.9686426 -16.74089434 12.20247011 -11.8125 8.4375 C-10.87801025 7.72150635 -9.94352051 7.0055127 -8.98071289 6.26782227 C-8.10664795 5.60065186 -7.23258301 4.93348145 -6.33203125 4.24609375 C-5.54546143 3.64466553 -4.7588916 3.0432373 -3.94848633 2.42358398 C-2 1 -2 1 0 0 Z " fill="#97DEE9" transform="translate(2276,672)"/>
<path d="M0 0 C186.12 0 372.24 0 564 0 C558.38222417 5.61777583 558.38222417 5.61777583 554.98828125 8.05859375 C553.86498413 8.87420776 553.86498413 8.87420776 552.71899414 9.70629883 C551.52777954 10.56324341 551.52777954 10.56324341 550.3125 11.4375 C543.64272459 16.29018295 537.05634858 21.22664659 530.5625 26.3125 C524.882026 30.75858894 519.17239944 35.15193682 513.38671875 39.4609375 C508.73099062 42.93849924 504.11957867 46.47467015 499.5 50 C494.01389132 54.18549577 488.52797116 58.3699066 483 62.5 C477.55549431 66.56782354 472.15281111 70.68950372 466.75 74.8125 C460.51881879 79.56718129 454.27808753 84.30741068 448 89 C438.28232541 96.26623517 428.64533111 103.63818645 419 111 C398.40707074 126.71300286 398.40707074 126.71300286 389.265625 133.54296875 C384.73903575 136.93791069 380.24806783 140.37993192 375.75 143.8125 C369.51881879 148.56718129 363.27808753 153.30741068 357 158 C347.28232541 165.26623517 337.64533111 172.63818645 328 180 C307.40707074 195.71300286 307.40707074 195.71300286 298.265625 202.54296875 C293.73903575 205.93791069 289.24806783 209.37993192 284.75 212.8125 C278.51881879 217.56718129 272.27808753 222.30741068 266 227 C256.28232541 234.26623517 246.64533111 241.63818645 237 249 C216.40707074 264.71300286 216.40707074 264.71300286 207.265625 271.54296875 C202.73903575 274.93791069 198.24806783 278.37993192 193.75 281.8125 C187.51881879 286.56718129 181.27808753 291.30741068 175 296 C165.28232541 303.26623517 155.64533111 310.63818645 146 318 C125.40707074 333.71300286 125.40707074 333.71300286 116.265625 340.54296875 C111.73903575 343.93791069 107.24806783 347.37993192 102.75 350.8125 C96.51881879 355.56718129 90.27808753 360.30741068 84 365 C74.28232541 372.26623517 64.64533111 379.63818645 55 387 C34.40707074 402.71300286 34.40707074 402.71300286 25.265625 409.54296875 C20.73903575 412.93791069 16.24806783 416.37993192 11.75 419.8125 C5.51881879 424.56718129 -0.72191247 429.30741068 -7 434 C-16.71767459 441.26623517 -26.35466889 448.63818645 -36 456 C-56.59292926 471.71300286 -56.59292926 471.71300286 -65.734375 478.54296875 C-70.26096425 481.93791069 -74.75193217 485.37993192 -79.25 488.8125 C-85.48118121 493.56718129 -91.72191247 498.30741068 -98 503 C-107.71767459 510.26623517 -117.35466889 517.63818645 -127 525 C-147.59292926 540.71300286 -147.59292926 540.71300286 -156.734375 547.54296875 C-161.26096425 550.93791069 -165.75193217 554.37993192 -170.25 557.8125 C-176.48118121 562.56718129 -182.72191247 567.30741068 -189 572 C-198.71767459 579.26623517 -208.35466889 586.63818645 -218 594 C-238.59292926 609.71300286 -238.59292926 609.71300286 -247.734375 616.54296875 C-252.26096425 619.93791069 -256.75193217 623.37993192 -261.25 626.8125 C-267.48118121 631.56718129 -273.72191247 636.30741068 -280 641 C-289.71766774 648.26623005 -299.35507104 655.63766969 -309 663 C-330.12757907 679.127461 -330.12757907 679.127461 -339.875 686.39868164 C-343.78956017 689.32413769 -347.67713529 692.28224434 -351.55078125 695.26171875 C-352.50533203 695.99455078 -353.45988281 696.72738281 -354.44335938 697.48242188 C-356.32622181 698.92949586 -358.2065224 700.37991058 -360.08398438 701.83398438 C-360.93927734 702.49076172 -361.79457031 703.14753906 -362.67578125 703.82421875 C-363.43802002 704.41291748 -364.20025879 705.00161621 -364.9855957 705.6081543 C-367 707 -367 707 -370 708 C-368.31722971 702.02015558 -365.39834175 696.76918485 -362.5 691.3125 C-361.96028564 690.28793701 -361.42057129 689.26337402 -360.86450195 688.20776367 C-359.76257222 686.11671038 -358.65882176 684.02661552 -357.55322266 681.9375 C-356.19993997 679.3781323 -354.8534052 676.81545878 -353.51171875 674.25 C-349.93718425 667.42104975 -346.33334418 660.60912769 -342.67578125 653.82421875 C-334.34235502 638.35912933 -326.22602675 622.79544784 -318.21502686 607.16098022 C-317.84629456 606.44141144 -317.47756226 605.72184265 -317.09765625 604.98046875 C-316.73617493 604.27499908 -316.3746936 603.56952942 -316.0022583 602.84268188 C-312.5028024 596.01915734 -308.93827096 589.23111408 -305.3515625 582.453125 C-302.54432662 577.14761816 -299.77331263 571.82329464 -297 566.5 C-292.94793661 558.72466189 -288.87808638 550.95907996 -284.7890625 543.203125 C-281.50913682 536.97753359 -278.25213914 530.74014515 -275 524.5 C-270.94780821 516.72472845 -266.8780867 508.95908057 -262.7890625 501.203125 C-259.50913682 494.97753359 -256.25213914 488.74014515 -253 482.5 C-248.94780821 474.72472845 -244.8780867 466.95908057 -240.7890625 459.203125 C-237.50913682 452.97753359 -234.25213914 446.74014515 -231 440.5 C-226.94659665 432.72240373 -222.87733969 424.95353555 -218.78466797 417.1965332 C-216.55387809 412.96476289 -214.33580499 408.7267846 -212.1328125 404.48046875 C-207.3496989 395.26529576 -202.52223673 386.08727364 -197.5 377 C-190.85460505 364.94814366 -184.62923572 352.68077025 -178.38085938 340.41992188 C-173.02740756 329.91926803 -167.5861374 319.46914358 -162.08013916 309.04769897 C-159.70281499 304.54083129 -157.35259237 300.01980855 -155 295.5 C-150.94820938 287.72452006 -146.87808579 279.95907885 -142.7890625 272.203125 C-139.50913682 265.97753359 -136.25213914 259.74014515 -133 253.5 C-128.94780821 245.72472845 -124.8780867 237.95908057 -120.7890625 230.203125 C-117.50913682 223.97753359 -114.25213914 217.74014515 -111 211.5 C-106.94780821 203.72472845 -102.8780867 195.95908057 -98.7890625 188.203125 C-95.50913682 181.97753359 -92.25213914 175.74014515 -89 169.5 C-84.94780821 161.72472845 -80.8780867 153.95908057 -76.7890625 146.203125 C-73.50913642 139.97753281 -70.25229922 133.74006228 -67 127.5 C-53.77746666 102.14306156 -53.77746666 102.14306156 -47.67578125 90.82421875 C-39.34682402 75.36742285 -31.23489541 59.81205631 -23.22766113 44.18624878 C-22.85991577 43.46865387 -22.49217041 42.75105896 -22.11328125 42.01171875 C-21.75262573 41.3079007 -21.39197021 40.60408264 -21.02038574 39.87893677 C-14.16239217 26.50648292 -7.07223888 13.26044789 0 0 Z " fill="#00C1CB" transform="translate(1713,671)"/>
<path d="M0 0 C0.54736816 0.45262207 1.09473633 0.90524414 1.65869141 1.37158203 C5.4770608 4.53806138 9.24581335 7.7577479 13 11 C13.84820313 11.72316406 14.69640625 12.44632813 15.5703125 13.19140625 C19.77263184 16.83104216 23.56411786 20.58759077 27.14453125 24.83984375 C28.45635567 26.36708355 29.81301799 27.85634044 31.19921875 29.31640625 C43.00948085 41.77328496 52.60470939 56.06859685 61 71 C61.36544922 71.63663574 61.73089844 72.27327148 62.10742188 72.92919922 C74.16074049 94.03295162 82.36952401 117.40993206 87.25 141.1875 C87.40122314 141.92186279 87.55244629 142.65622559 87.70825195 143.4128418 C90.60531566 158.52304928 91.40863176 173.52312067 91.375 188.875 C91.37418427 190.28514877 91.37418427 190.28514877 91.37335205 191.7237854 C91.33165764 207.46809356 90.30056208 222.55969931 87 238 C86.67854004 239.53793213 86.67854004 239.53793213 86.35058594 241.10693359 C78.99227769 275.36537453 63.88922431 308.55973139 42 336 C40.92492188 337.36318359 40.92492188 337.36318359 39.828125 338.75390625 C28.53525975 352.8299422 16.17874251 365.81223388 2 377 C0.53626953 378.18916016 0.53626953 378.18916016 -0.95703125 379.40234375 C-21.78796262 395.98848156 -45.91434633 408.30976019 -71 417 C-72.03253906 417.36665771 -72.03253906 417.36665771 -73.0859375 417.74072266 C-81.58274642 420.73294728 -90.19482234 422.81589135 -99 424.6875 C-99.9485083 424.89012451 -100.8970166 425.09274902 -101.87426758 425.30151367 C-117.39793026 428.4605441 -132.51420521 429.40857335 -148.3125 429.375 C-149.27844086 429.37445618 -150.24438171 429.37391235 -151.23959351 429.37335205 C-167.13677694 429.33232791 -182.4195568 428.40757363 -198 425 C-198.98613281 424.78569336 -199.97226563 424.57138672 -200.98828125 424.35058594 C-242.06422374 415.10446127 -278.54577317 395.78016989 -310 368 C-310.53286621 367.53029785 -311.06573242 367.0605957 -311.61474609 366.57666016 C-317.84097051 361.05791848 -323.67673642 355.40847826 -329 349 C-329.80695313 348.08089844 -330.61390625 347.16179687 -331.4453125 346.21484375 C-349.76211042 325.28421083 -364.32922194 301.09635706 -374 275 C-374.2995459 274.20803223 -374.5990918 273.41606445 -374.90771484 272.60009766 C-396.50112095 214.74541501 -394.35832714 147.41209056 -368.94921875 91.125 C-352.73033572 56.20613101 -329.01476128 23.34183857 -298 0 C-297.37996094 -0.47469727 -296.75992187 -0.94939453 -296.12109375 -1.43847656 C-217.21669913 -61.58997664 -110.35345077 -66.87946701 0 0 Z " fill="#FEAE45" transform="translate(2186,1623)"/>
</svg>
